<?xml version="1.0" encoding="utf-8"?>
<svg version="1.1" viewBox="453.508 27.112 1209.997 889.716" width="1094" height="689" xmlns="http://www.w3.org/2000/svg">
  <path transform="translate(1057,95)" d="m0 0h11l10 3 9 6 7 10 3 10v12l-3 10-7 11-6 7-1 9 7 8 4 5 1 4v12l34 4 35 7 38 10 72 24 17 5 11 2h6l6-9 5-4 5-2h12l6 3 8 9 2 6v9l-4 9v7l18 43 15 36 14 34 18 44 12 28 11 28 2 8h10l-1 6-5 12-9 14-12 13-10 9-11 7-17 8-17 5-17 3-25 1-16-1-20-4-18-6-17-9-12-9-7-6-9-11-10-15-6-13v-3l7-1 5-10 18-44 15-36 17-41 20-49 15-37 2-6-15 1-22-1-37-6-55-11-39-6-18-2-15-1h-17v14l-2 62-1 46-1 24-3 123v59l2 12 6 12 7 7 11 4 17 4 5 3 4 9 2 13-1 1h-142v-8l2-9 4-6 8-4 19-5 9-6 6-8 4-11 1-6v-46l-5-257v-27h-20l-32 3-37 6-73 14-23 3-36 1 15 35 20 50 12 29 19 45 19 47 6 14v2l7 1 1 3-5 12-7 12-9 10-7 8-11 9-13 8-16 7-14 4-17 3-12 1h-19l-19-2-17-4-21-8-16-10-13-12-9-10-11-18-3-8v-5l1-1h8l3-9 15-36 12-29 18-43 25-60 18-43 1-8-4-9v-7l4-10 5-6 7-4 10-1 11 4 5 6 2 6 10-1 29-8 49-17 42-12 30-7 24-4 19-2h9v-12l5-10 7-8 1-7-4-6-7-9-4-8-2-9v-7l4-13 6-8 8-7zm-259 193-4 8-8 20-13 30-12 29-50 120-3 6v2l94 1h37l49-1-6-16-18-43-17-41-12-29-16-39-15-36-5-11zm526 1-6 14-17 41-15 37-20 48-16 39-13 30-2 5 3 1h127l50-1-10-24-15-37-11-26-14-34-15-36-12-29-12-28z" fill="#063D68"/>
  <path transform="translate(1223,704)" d="m0 0 27 1 26 4 19 5 15 5-1 2h-48l-27 3-28 6-26 8-19 8-17 9-14 9 10-3 21-8 21-5 19-3 28-2h19l26 2 25 5 19 5 13 5v1l-70 2-26 3-25 5-22 6-29 10-13 6-12 6h3l33-10 32-6 26-3 15-1h44l27 3 28 6 15 5 1 2-43 1-44 4-39 6-35 7-31 9-29 10-5 2 18-4 33-6 30-4 24-2 22-1h33l31 2 25 3 22 5 16 6 10 6 10 9 10 15 7 15 3 13-1 2-4 1-82-4-69-3-32-1h-66l-39 2-12 2-11 7-12 6-16 4-13 1h-15l-21-3-12-4-11-6-5-5-11-2-47-2h-60l-75 3-87 4h-24l1-9 6-15 9-16 11-12 11-7 14-6 20-5 31-4 32-2h29l34 2 33 4 32 6 21 5h2l-18-7-27-9-32-8-33-6-39-5-37-3-34-1v-2l24-7 19-4 16-2 14-1h40l24 2 26 4 27 6 29 9h2l-24-12-30-11-22-6-27-5-16-2-40-2h-33v-2l30-10 12-3 24-3 24-1 36 2 25 4 24 7 23 9-1-1-11-8-21-11-15-6-21-7-27-6-18-3-22-2h-44l3-3 18-6 26-5 15-2h43l26 4 24 7 18 8 17 9 14 10 15 13 9 11 10 15 6 12 3 10h2l1-6 8-16 7-11 8-10 15-15 17-12 18-10 16-7 19-6 25-5 7-1zm-234 131m63 24-12 3-10 6-3 6v7l6 7 10 4 13 2h15l18-4 8-5 3-7-1-6-7-7-9-4-10-2z" fill="#063D68"/>
  <path d="m0 0 2 1 6 21 4 21 1 9v19l-2 13-4 15-1 3 12-9 17-8 14-4 16-3 29-1-6 8-9 11-20 18-15 10-16 7-21 6-8 1h-10l-2 6-8 16-4 10 15-11 14-7 18-5 12-2 18-1 2 1-2 4-14 18-9 10-8 8-14 10-17 9-18 6-11 2h-4l-2 10-5 18-3 17 8-11 10-10 16-11 14-6 16-4 9-1-2 6-8 15-12 19-9 11-12 13-11 9-9 6-17 7-5 37v8l7-14 9-12 12-12 14-9 15-7 7-2-1 8-8 26-7 17-9 16-9 12-11 12-12 9-8 4h-2l4 20 5 29 6-20 6-13 6-10 9-11 12-11 11-7 1 1v15l-2 20-5 22-6 17-8 16-9 14-9 10-5 4 1 6 11 26 6 15 1-17 4-20 6-15 8-14 11-14 7-7 2 3 2 16 1 17v18l-2 19-5 21-8 21-8 14 2 5 13 22 11 17 5 8v2h2l-4-14-2-18 1-17 4-20 7-20 8-15 3-1 12 36 4 21 1 12v20l-2 16-4 17-5 11 1 4 12 12 7 8 11 12 2 2-3-11-5-26v-21l5-25 8-23 3-1 13 28 9 25 5 22 1 8v18l-3 15-7 14-7 8-9 6-12 5-11 2h-19l-18-3-18-6-16-8-16-10-13-10-4-4 7-3 30-5h32l18 3 17 6h3l-18-18-9-11-4-4-9 1-6 1h-20l-18-4-14-5-19-10-13-10-13-11-13-13-9-11-4-5v-2h18l23 3 22 6 21 9 14 8 13 8-7-12-10-15-11-18-1-2-21-2-16-5-16-8-14-9-11-9-9-9-11-14-11-16-12-23v-2l19 4 24 8 16 8 16 10 13 11 14 14-3-9-12-27-6-15-2-2-10-2-12-5-11-7-15-13-9-10-11-16-9-16-10-24-5-16v-2l6 1 21 9 16 10 13 11 8 7 9 11 9 13 6 10-3-22-5-35v-2l-5-2-10-6-10-8-7-7-9-12-9-16-7-16-6-19-3-14-2-15v-10l5 2 14 10 12 11 11 12 10 15 8 16 7 21 3-25 4-28v-4l-9-6-10-9-9-14-10-21-6-23-2-13v-33l2-16 4 2 7 8 8 9 11 16 8 16 5 12 5 18 2 14 12-48-1-4-10-14-8-17-4-13-4-24v-22l4-24 6-21 2-4h2l11 19 7 14 6 18 3 15 1 9v31l5-13 10-19 3-7-1-6-5-15-3-15v-27l3-17 7-21 9-19 8-13z" fill="#53B9A4" transform="translate(617,83)"/>
  <path transform="translate(1499,84)" d="m0 0 4 2 9 14 8 16 6 18 3 13 1 9v22l-2 14-4 15-3 7 1 5 10 19 9 21-2-12v-20l3-19 6-21 8-18 10-17 3-1 6 18 4 21 1 7v32l-4 20-6 18-8 15-8 9 3 11 6 21 4 17h1l5-25 7-19 10-18 8-11 11-13 6-6h2l2 9v44l-5 24-6 16-9 16-8 10-7 7-10 7v9l4 36v11l1 1 2-9 5-13 7-13 10-14 9-11 12-11 14-11 4-3h2v14l-4 26-6 20-11 23-10 14-11 12-7 6-14 9-2 1-4 24-4 25-1 9 1-1 9-16 7-10 9-10 11-10 13-9 21-11 14-5h2l-2 10-7 20-8 18-8 13-9 13-12 13-15 12-12 7-11 4-10 1-1 5-19 48 17-17 13-10 13-8 21-10 29-9 9-1-2 5-8 16-9 14-11 14-9 10-7 7-13 10-15 9-15 7-12 3-19 2-3 5-11 18-11 17-4 7 14-10 16-9 21-8 21-5 13-2 24-1-2 5-12 14-21 21-15 11-18 10-14 6-16 4-7 1h-18l-10-3-5-1-2 4-13 15-9 10-5 7 16-6 12-3 8-1h33l27 4 10 2v3l-15 12-14 9-16 8-15 6-18 4-6 1h-18l-14-3-14-7-10-9-6-9-5-14-1-5v-25l3-18 8-26 11-25 6-10 3 3 7 18 4 16 2 13v23l-2 16-3 12v3l8-10 11-12 10-13-1-5-5-13-4-21-1-19 3-27 5-20 8-21 3-7 3 3 10 22 5 17 2 9 1 9v22l-3 17v3l12-18 13-21 6-10-1-5-8-14-7-18-5-20-2-14v-37l3-21 2-3 10 11 11 16 7 14 4 11 3 14 1 7v15h2l2-9 14-35v-4l-8-7-9-11-9-14-9-20-6-21-3-19v-26l4 2 9 7 10 9 7 7 10 15 7 16 5 17 4-28 3-15 1-7-6-2-12-9-10-9-9-10-9-14-9-17-7-19-5-20 1-4 16 6 13 8 9 7 6 5 8 10 11 18 1 2-1-21-2-19-2-5-13-4-13-7-10-8-8-7-9-11-8-10-10-16-8-16-2-6 11 1 19 6 14 7 11 7 10 10 9 12-1-9-6-26-4-11-15-2-18-6-12-6-11-7-11-9-11-11-10-13-8-11v-2l5-1 22 2 18 4 16 7 9 6 10 8-8-15-8-17-22-3-20-6-16-8-12-8-14-12-12-12-8-10 1-3 26 1 19 3 16 5 14 7 8 6 3 1-4-13-2-18v-20l3-22 5-19zm-70 695 1 2z" fill="#53B9A4"/>
  <path transform="translate(1457,971)" d="m0 0h30v62l11-9 13-6 9-2h20l11 3 14 7 11 10 7 11 5 11 3 13 1 19-2 16-4 12-6 11-9 10-10 7-12 5-11 2h-19l-12-3-12-6-7-7-1 2-1 11h-29l-1-177zm61 71-10 3-9 6-7 10-4 13v23l4 13 6 8 6 5 11 4 12 1 13-4 8-6 6-7 5-13 1-14-2-15-4-10-7-9-10-6-8-2z" fill="#53B9A4"/>
  <path transform="translate(1940,1007)" d="m0 0h18l15 3 12 5 13 9 8 8 8 13 5 14 2 12v19l-4 17-7 14-7 9-10 9-16 8-15 4-16 1-16-2-15-5-11-6-14-14-8-14-4-11-2-11v-20l3-14 5-12 7-10 7-8 13-9 11-5zm1 29-12 5-8 7-6 10-3 11-1 6v14l3 11 6 11 7 7 8 4 9 2h10l13-4 10-9 6-10 3-12v-17l-3-12-5-9-6-7-10-6-8-2z" fill="#42AA96"/>
  <path transform="translate(1009,1016)" d="m0 0h28l14 3 12 6 9 9 6 12 2 10 1 80 1 14h-29l-1-5v-8l-10 8-9 5-13 3h-18l-16-4-10-6-7-8-5-12v-18l6-12 8-8 8-5 16-5 25-4 17-3 4-2 1-7-3-9-7-6-6-2-15-1-10 3-6 5-3 6-2 7-10 1h-19l-1-4 2-12 5-10 9-10 10-6zm40 73-30 4-13 4-6 4-4 5v11l3 6 5 4 5 2h15l10-3 9-6 5-7 2-8v-16z" fill="#063C68"/>
  <path transform="translate(1365,1016)" d="m0 0h24l17 4 11 6 6 5 5 7 4 11 2 10 1 91h-29l-1-13-7 6-7 5-10 4-8 1h-17l-14-3-11-6-7-8-5-10-1-4v-16l5-12 5-6 10-7 13-5 21-4 22-3 6-3 3-5-3-10-5-5-6-3-4-1h-17l-8 3-6 7-3 10-29 1v-10l3-10 7-11 10-8 13-6zm36 73-32 5-12 5-6 5-1 2v12l3 5 5 4 5 2h17l10-4 8-6 5-10 1-4v-16z" fill="#063D68"/>
  <path transform="translate(257,1016)" d="m0 0h27l13 3 14 7 10 8 8 10 6 12 4 15 1 9v12l-3 16-5 12-6 9-11 11-12 7-16 5-7 1h-19l-16-4-14-7-10-9-6-7-8-16-3-13v-25l4-15 8-16 9-10 14-9 10-4zm9 25-10 3-9 6-7 10-4 13v23l3 11 6 10 9 7 12 4h11l12-4 8-6 6-8 4-10 2-11v-10l-4-16-6-10-8-7-9-4-7-1z" fill="#063D68"/>
  <path transform="translate(553,1016)" d="m0 0h28l14 3 12 6 9 8 6 12 3 11v3h-30l-3-8-5-5-10-4-12-1-12 2-8 5-2 3v7l3 5 9 4 37 6 16 5 11 7 6 7 4 10 1 12-2 10-5 10-5 6-9 6-14 5-12 2h-22l-13-2-13-4-11-7-7-7-6-12-2-8v-4l8-1h22l6 12 10 6 8 2h19l10-3 5-5 1-3v-7l-4-6-11-4-40-7-12-4-9-5-6-7-5-12v-15l5-12 9-10 9-6 10-4z" fill="#063D68"/>
  <path transform="translate(654,1019)" d="m0 0h31l1 78 3 12 5 8 6 5 7 3 14 1 11-3 9-6 4-5 4-10 1-6 1-77h30l1 131h-29l-1-1-1-14-9 9-14 7-9 2h-20l-13-3-12-6-7-6-8-12-4-13-1-8z" fill="#063D68"/>
  <path transform="translate(419,1016)" d="m0 0h26l13 4 11 7 7 8 6 12 3 12 1 19v72h-31l-1-80-3-12-6-9-7-4-9-2h-8l-9 2-10 6-6 9-2 7-1 83h-31v-131h29v12l7-6 14-7z" fill="#063D68"/>
  <path transform="translate(1163,1016)" d="m0 0h24l11 3 10 6 5 4 7 10 4 10 2 9v92h-30l-1-84-3-10-6-8-9-4-14-1-11 3-4 3h-2l-7 14-1 5-1 82h-30l-1-1v-130h29l1 12 9-8 10-5z" fill="#063C68"/>
  <path transform="translate(115,1016)" d="m0 0h27l12 3 13 7 8 7 7 10 6 15 1 8h-30l-4-10-6-7-10-5-3-1h-18l-9 4-8 7-6 12-2 11v12l3 15 5 10 9 8 10 4 6 1h10l11-4 8-7 4-8 2-6h30l-2 10-5 12-6 9-9 9-16 8-12 3h-22l-14-3-12-5-11-8-9-10-8-16-3-12-1-11v-9l2-14 5-15 6-10 8-9 13-9 10-4z" fill="#063D68"/>
  <path transform="translate(1595,1020)" d="m0 0h32l4 6 12 30 19 48 4 11v3h2l3-10 12-31 17-41 5-15h32l-10 25-18 43-11 26-14 33-1 2h-34l-5-10-19-46-16-38-12-29-2-4z" fill="#52B8A3"/>
  <path d="m0 0h7v33h31v25h-30v64l2 11 4 5 8 2 15-1 1 24-7 2-6 1h-21l-12-4-8-7-5-9-2-16v-72l-17 1-1-1v-24l1-1 17-1v-21l1-9z" fill="#063D68" transform="translate(1273,986)"/>
  <path transform="translate(912,986)" d="m0 0h9v33h29l1 2-1 23h-29l1 71 3 7 5 3 8 1 12-1v24l-6 2-5 1h-22l-10-3-8-6-6-10-2-8-1-80h-18l-1-1v-24l5-1h15v-31z" fill="#063D68"/>
  <path transform="translate(1841,1007)" d="m0 0h17l6 3v18l-2 14-6-1h-19l-12 6-7 8-5 11-2 11-1 12-1 59h-34v-137l1-1h31l1 1v21l6-10 9-8 11-5z" fill="#41A795"/>
  <path d="m0 0h32v182h-32z" fill="#083F69" transform="translate(819,968)"/>
  <path transform="translate(1373,42)" d="m0 0 9 1 16 7 17 10 10 8 10 9 10 10 14 21 7 15 6 18 3 12v5l-9-3-19-11-14-10-10-9-13-13-12-16-9-16-7-14-9-21z" fill="#53B8A4"/>
  <path transform="translate(744,40)" d="m0 0 1 4-7 19-8 17-11 18-9 11-7 7-7 8-13 11-19 12-18 10h-3l2-11 4-15 6-15 8-15 10-13 9-10 10-10 15-11 16-9 18-7z" fill="#52B8A3"/>
  <path transform="translate(1721,1119)" d="m0 0h11l6 4 4 6 1 6-3 8-4 5-6 3-7 1-8-3-6-8-1-6 3-8 4-5z" fill="#53B8A3"/>
  <path transform="translate(725,776)" d="m0 0h1l-1 10-5 13-6 8-4 5-9 6-12 5-11 2h-19l-18-3-18-6-16-8-16-10-1-3 5 2 10 5v2l5 2 17 8 22 5 13 2h8l21-3 14-7 3-1 2-4 8-11 4-13 1-5z" fill="#45AD98"/>
  <path transform="translate(1655,464)" d="m0 0h2l-2 10-7 20-8 18-8 13-9 13-12 13-15 12-12 7-11 4h-6l2-4 6-1 16-7 9-7 10-8 6-7h2l2-5 6-7 4-7 6-10 5-8 3-9 6-16v-7l-7 1-12 5-4 1v-2l19-9z" fill="#44AC98"/>
  <path transform="translate(1588,1102)" d="m0 0h2l-1 8-5 12-6 9-7 8-10 7-12 5-11 2h-19l-12-3-12-6-3-3 1-3 7 5 13 5 20 1 18-3 18-9v-2h2v-2h2l2-4 5-8 5-11z" fill="#45AC98"/>
  <path transform="translate(1705,1021)" d="m0 0h32l-10 25-18 43-2 4-1-4 4-13 8-20 6-13 5-13 1-5-13-1-8 1-3 1z" fill="#45AC98"/>
  <path transform="translate(1704,1094)" d="m0 0h2l-3 9-13 31-7 16h-34l-5-10-4-10 1-4 9 17 2 2 14 1 14-1 2-1 8-20 10-22z" fill="#44AC98"/>
  <path transform="translate(744,40)" d="m0 0 1 4-7 19-8 17-11 18-9 11-8 8-1-3 8-9 12-17 12-23 4-9 1-7-9-1 1-3z" fill="#49AE9A"/>
  <path transform="translate(1638,388)" d="m0 0h2l-1 9-7 21-11 21-9 12-9 10-8 7-10 7h-3l2-4 13-9 4-2v-2h2l2-4 2-3h2l2-4 10-15 10-21z" fill="#44AC98"/>
  <path transform="translate(609,391)" d="m0 0h2l-2 9-7 19-9 17-10 14-12 13-12 9-6 2-2-2 10-6h3v-2h2v-2h2v-2h2v-2l5-5h2l2-4 10-13 8-16 5-11 5-14z" fill="#46AD99"/>
  <path transform="translate(659,240)" d="m0 0 1 4-11 13-11 11-14 10-17 9-14 5h-5v-2h2v-2l13-4 16-8 6-4 14-10 15-15 4-6z" fill="#46AD99"/>
  <path transform="translate(1526,795)" d="m0 0h2l-2 4-16 10-20 9-18 5-12 2h-18l-11-2v-2l-2-1h7l4 1h20l19-3 10-3 11-5 16-8z" fill="#45AC98"/>
  <path transform="translate(1520,1016)" d="m0 0h20l11 3 14 7 11 10 7 11 4 8v4h-2l-8-16-9-10-7-6-13-6-3-1h-30l-12 5-5 2v-3l13-6z" fill="#45AC98"/>
  <path transform="translate(1604,682)" d="m0 0v3l-11 14-23 23-9 7-4-1 10-9 9-7 7-7 1-2h2v-2h2l2-4 7-10-16-1-2-2 2-1z" fill="#45AC98"/>
  <path transform="translate(1592,640)" d="m0 0h2l-1 4-15 10-17 9-12 4-13 2h-8l1-3 7-1 21-5 19-9 13-9z" fill="#46AD99"/>
  <path transform="translate(1641,573)" d="m0 0h4l-2 5-8 16-9 14-11 14-3 4-4 1 2-4 14-19 8-11 4-9v-5h-8l1-3z" fill="#48AE9A"/>
  <path transform="translate(1627,528)" d="m0 0h2l-2 5-12 14-11 10-13 9-12 6-6 2h-6l2-4 6-1 16-7 9-7 10-8 6-7h2l2-5z" fill="#47AD99"/>
  <path transform="translate(1595,1020)" d="m0 0h32l4 6 12 30 5 12v3h-2l-9-21-6-16-3-9-3-1h-25l2 8-5-5-2-4z" fill="#46AD99"/>
  <path transform="translate(590,745)" d="m0 0 9 1 14 3h33v3l-11 2h-20l-18-4-7-4z" fill="#44AC98"/>
  <path transform="translate(1516,1039)" d="m0 0h16l10 4 11 10 6 10 2 7-3 1-5-12-6-8-10-6-8-2h-11l-10 1 4-4z" fill="#45AC98"/>
  <path transform="translate(1611,323)" d="m0 0 2 1-1 7-5 12-8 14-8 10-7 7h-3l2-4 11-11 6-10 7-15z" fill="#45AC98"/>
  <path transform="translate(679,191)" d="m0 0v3l-10 8-16 9-11 4h-3v-2h2v-2l15-6 10-6z" fill="#44AC98"/>
  <path transform="translate(1498,531)" d="m0 0 6 5 3 4-1 3-5-3-2 3-3 31-2 1v-20l3-21z" fill="#43AB97"/>
  <path transform="translate(620,323)" d="m0 0 2 1-2 5-7 10-7 9-12 13-4-1 10-10 7-9 12-17z" fill="#46AD99"/>
  <path transform="translate(596,520)" d="m0 0h1v6l-8 17-10 15-6 7h-3l2-4 10-13 8-16z" fill="#45AD99"/>
  <path transform="translate(634,297)" d="m0 0h3l-2 6-8 15-4 2 2-6 5-11h-2v-2l-8 2h-6l1-2z" fill="#46AD99"/>
  <path transform="translate(615,372)" d="m0 0h1l-1 8-3 8h-2l-1-10-16 7-3 1v-3l19-9z" fill="#44AC97"/>
  <path transform="translate(1526,795)" d="m0 0h2l-2 4-16 10-20 9-9 2 4-4 10-4 9-4 12-6z" fill="#46AD99"/>
  <path transform="translate(1477,749)" d="m0 0 23 1 10-1-1 3-9 2h-18l-7-2v-2z" fill="#45AC98"/>
  <path transform="translate(744,40)" d="m0 0 1 4-5 14-3 1 1-10-9-1 1-3z" fill="#43AB97"/>
  <path transform="translate(1613,446)" d="m0 0 1 3-12 13-7 6-10 7h-3l2-4 13-9 4-2v-2h2l2-4 5-5z" fill="#47AD99"/>
  <path transform="translate(1595,1020)" d="m0 0h32l1 5-3-1h-25l2 8-5-5-2-4z" fill="#45AC98"/>
  <path transform="translate(1723,1119)" d="m0 0h9l6 4 4 6 1 6-3 8-4 2 2-16-3-3v-2l-5-2-7-2z" fill="#44AC98"/>
  <path transform="translate(1631,596)" d="m0 0 1 3-9 13-11 14-4 1 2-4 14-19z" fill="#48AE9A"/>
  <path transform="translate(539,713)" d="m0 0 4 2 9 7 8 5v2l5 2 9 6-1 2-5-2-11-7-13-11-5-4z" fill="#45AC98"/>
  <path transform="translate(1572,252)" d="m0 0 2 1-2 9-8 17-6 8-3-1 6-9 6-13z" fill="#46AD99"/>
  <path transform="translate(1500,86)" d="m0 0 4 1 8 13 8 16 4 11v5l-2-1-6-17-10-19z" fill="#46AD99"/>
  <path transform="translate(590,795)" d="m0 0 5 2 10 5v2l5 2 15 8v2l-6-2-14-7-15-10z" fill="#47AE9A"/>
  <path transform="translate(1373,42)" d="m0 0 9 1 3 3-5 2 3 12 2 4-1 3-1-4h-2l-8-18z" fill="#44AC98"/>
  <path transform="translate(1520,672)" d="m0 0h2l-1 5-12 19-4 6-3 1 2-5 4-8 6-9z" fill="#46AD99"/>
  <path transform="translate(1483,647)" d="m0 0 2 1 3 13v26l-2 2-1-25-2-10-1-6z" fill="#42AA96"/>
  <path transform="translate(549,151)" d="m0 0h2l7 12-1 3-5-7v-2h-3l-4 18-1 3h-2l1-10 5-15z" fill="#46AE99"/>
  <path transform="translate(709,160)" d="m0 0 2 1-11 13h-3l2-5v-2l-4-6z" fill="#43AB97"/>
  <path transform="translate(686,128)" d="m0 0h2v3l-14 10-12 7-4-1 24-16z" fill="#45AC98"/>
  <path transform="translate(1552,298)" d="m0 0 4 1 4 13-1 5h-2l-1-6h-2l-4-5v-6z" fill="#45AC98"/>
  <path transform="translate(1506,1043)" d="m0 0m-2 1h2v3l-6 4-7 10-3 6-2 1 1-9 7-9h2v-2z" fill="#44AC98"/>
  <path transform="translate(721,90)" d="m0 0 1 3-10 14-10 10-1-3 8-9 9-12z" fill="#45AD99"/>
  <path transform="translate(518,636)" d="m0 0 5 3 13 9 10 6-1 2-9-4-13-9-5-4z" fill="#44AC98"/>
  <path transform="translate(1473,211)" d="m0 0 10 2 17 4 4 3h-9l-19-5z" fill="#45AC98"/>
  <path transform="translate(707,57)" d="m0 0 2 1-5 5-10 8-10 9-4 3 1-4 11-11z" fill="#45AD99"/>
  <path transform="translate(1600,351)" d="m0 0 1 3-9 12-8 8h-3l2-4 11-11 4-6z" fill="#46AE99"/>
  <path transform="translate(472,352)" d="m0 0 5 2 14 10 2 3-5-2-7-5-8 1z" fill="#44AC98"/>
  <path transform="translate(1457,1143)" d="m0 0 3 3 19 1v3h-22z" fill="#3DA192"/>
  <path d="m0 0 4 5 5 9 7 6 5 3-3 1-10-6-7-11z" fill="#46AD99" transform="translate(1488,1102)"/>
  <path transform="translate(1716,1146)" d="m0 0h19l-2 4-10 2-5-2v-2h-2z" fill="#45AC98"/>
  <path transform="translate(1498,531)" d="m0 0 6 5 3 4-1 3-5-3-4 4h-1l1-10z" fill="#48AE9A"/>
  <path transform="translate(620,532)" d="m0 0 2 3v5l-2 1h-5l-8 9-1-2 8-10z" fill="#44AC98"/>
  <path transform="translate(1642,353)" d="m0 0h2v4l-11 7-7 5h-2v-2l14-11z" fill="#45AD98"/>
  <path transform="translate(1638,388)" d="m0 0h2l-1 9-5 16-2-2 2-9z" fill="#45AD99"/>
  <path transform="translate(1542,737)" d="m0 0 2 1-3 3-15 7-4-1 4-3z" fill="#45AC98"/>
  <path transform="translate(1463,623)" d="m0 0 2 1-4 13-5 12-1-4 7-21z" fill="#45AD99"/>
  <path transform="translate(600,557)" d="m0 0 1 2-6 12-6 17h-1l1-9 7-16z" fill="#46AD99"/>
  <path transform="translate(512,683)" d="m0 0h7l4 2-3 3 1 5h-3l-6-8z" fill="#44AB97"/>
  <path transform="translate(1562,161)" d="m0 0v3l-8 16-4 9-1-4 7-16 4-7z" fill="#47AE9A"/>
  <path transform="translate(697,674)" d="m0 0h2v7l-3 3-6 15h-1l1-7 6-17z" fill="#46AD99"/>
  <path transform="translate(1500,810)" d="m0 0 4 2-20 8-3-1 7-4z" fill="#47AE9A"/>
  <path transform="translate(607,453)" d="m0 0 2 1-1 10h-2l-1-3-7 1 2-4z" fill="#47AD99"/>
  <path transform="translate(1567,151)" d="m0 0h2l6 18v5h-2l-4-15-1-4h-2z" fill="#48AF9B"/>
  <path transform="translate(1509,453)" d="m0 0 4 2 9 7 2 3-6-2-4-3-5-2z" fill="#45AC98"/>
  <path transform="translate(670,760)" d="m0 0 7 6 8 9v3l-3-1v-3h-2l-5-6-5-5z" fill="#49AE9A"/>
  <path transform="translate(657,757)" d="m0 0 5 3 5 5v2l4 2-3 1-5-3-6-7z" fill="#47AD99"/>
  <path transform="translate(1515,1017)" d="m0 0 4 1-12 5-9 4v-3l13-6z" fill="#46AD99"/>
  <path transform="translate(1526,780)" d="m0 0h8l10 2v3l-6 2v-3l-12-3z" fill="#49AE9A"/>
  <path transform="translate(1420,674)" d="m0 0 3 3 5 13v5l-2-1-5-14-2-5z" fill="#46AE99"/>
  <path transform="translate(565,663)" d="m0 0 8 1 10 2 1 2h-11l-5-2v-2z" fill="#44AB97"/>
  <path transform="translate(1386,46)" d="m0 0 6 1 13 7 1 3-5-2-15-8z" fill="#49AF9B"/>
  <path transform="translate(1474,623)" d="m0 0 3 3 6 15v4h-2l-7-20z" fill="#46AE99"/>
  <path transform="translate(460,464)" d="m0 0 6 1 4 2-1 2-2-1v2h-2l-1 3-1-3h-2z" fill="#45AD98"/>
  <path transform="translate(1400,722)" d="m0 0 1 4-4 15-2 1v-7l4-12z" fill="#45AD98"/>
  <path transform="translate(473,573)" d="m0 0 9 2-1 5-3 1-4-4z" fill="#49AE9B"/>
  <path transform="translate(464,474)" d="m0 0 3 2 4 13-1 4-4-8-2-6z" fill="#46AE99"/>
  <path transform="translate(1641,469)" d="m0 0 3 1-2 3-13 5h-2v-2z" fill="#49AE9B"/>
  <path transform="translate(668,227)" d="m0 0 3 1-2 4-4 2-2-3-4-1v-2z" fill="#49AE9A"/>
  <path transform="translate(646,150)" d="m0 0 2 1 4-1v4l-6 3h-3l1-5h2z" fill="#45AC98"/>
  <path transform="translate(1500,86)" d="m0 0 4 1 8 13 1 3-3-1-9-14z" fill="#47AE9A"/>
  <path transform="translate(546,162)" d="m0 0h1l-1 9-2 7h-2l1-10z" fill="#44AB97"/>
  <path transform="translate(694,67)" d="m0 0m-2 1 2 1-11 12-3 2 1-4z" fill="#47AF9A"/>
  <path transform="translate(1511,688)" d="m0 0 1 3-7 11-3 1 2-5 5-8z" fill="#45AC98"/>
  <path transform="translate(524,273)" d="m0 0 3 1 8 13-1 3-3-4-7-11z" fill="#47AE9A"/>
  <path transform="translate(1598,269)" d="m0 0v3l-8 11-3 3 1-5 7-10z" fill="#45AD99"/>
  <path transform="translate(630,215)" d="m0 0 4 1-2 2-8 2h-6l1-2z" fill="#44AC98"/>
  <path transform="translate(539,193)" d="m0 0h2v8l-2 9h-1v-15z" fill="#42AA96"/>
  <path transform="translate(1468,610)" d="m0 0 3 3 1 5-7 2 1-5z" fill="#46AE9A"/>
  <path transform="translate(1511,488)" d="m0 0 3 3 2 13h-2l-3-11z" fill="#45AD99"/>
  <path transform="translate(1428,182)" d="m0 0 7 6 6 5v2l-4-2-9-8z" fill="#46AD99"/>
  <path transform="translate(1483,647)" d="m0 0 2 1 3 13-1 4-5-15z" fill="#49B09B"/>
  <path transform="translate(520,463)" d="m0 0 5 2 8 5-3 1-5-2-5-4z" fill="#45AC98"/>
  <path transform="translate(576,783)" d="m0 0h5l1 5 3 3-5-1-6-5z" fill="#45AC98"/>
  <path transform="translate(697,118)" d="m0 0h3l-2 4-6 5-3-1 6-6h2z" fill="#4CB09D"/>
  <path transform="translate(635,644)" d="m0 0 2 1-3 13-2 2 1-10z" fill="#45AD99"/>
  <path transform="translate(481,472)" d="m0 0 6 2 9 6-1 2-14-8z" fill="#47AE9A"/>
  <path transform="translate(1484,1139)" d="m0 0 2 1v9l-5-1z" fill="#42AA96"/>
  <path transform="translate(650,610)" d="m0 0h2l3 8v3h-2l-4-8z" fill="#4CB09D"/>
  <path transform="translate(480,395)" d="m0 0 2 2 3 9v3h-2l-3-8z" fill="#4BAF9C"/>
  <path transform="translate(1491,216)" d="m0 0 9 1 4 3h-9l-4-2z" fill="#43AB97"/>
  <path transform="translate(1657,1095)" d="m0 0 2 1 4 11-1 2-2-1-3-9z" fill="#46AE99"/>
  <path transform="translate(612,634)" d="m0 0h2l-1 6-2 5-3 1 3-11z" fill="#45AD98"/>
  <path transform="translate(596,520)" d="m0 0h1v6l-3 6-2-1 1-5z" fill="#44AC98"/>
  <path transform="translate(600,378)" d="m0 0 2 1-3 3-9 4v-3z" fill="#46AD99"/>
  <path transform="translate(504,249)" d="m0 0h2l5 5v3l-4-2-4-1z" fill="#49AD9A"/>
  <path transform="translate(617,83)" d="m0 0 2 1-1 4-3 2-2 4-1-4 4-6z" fill="#47AE9A"/>
  <path transform="translate(1628,1022)" d="m0 0 3 4 3 9-3-1-3-7z" fill="#48AF9B"/>
  <path transform="translate(1481,298)" d="m0 0h3l4 9v2l-3-1-4-8z" fill="#47AE9A"/>
  <path transform="translate(1399,795)" d="m0 0 4 4 4 7-4-1-4-7z" fill="#45AD99"/>
  <path transform="translate(610,679)" d="m0 0h2l6 10-1 3-7-10z" fill="#45AD99"/>
  <path transform="translate(1636,587)" d="m0 0 1 3-4 7-2-1 2-6z" fill="#45AC98"/>
  <path transform="translate(1704,1094)" d="m0 0h2l-3 9-3 1 2-7z" fill="#44AC98"/>
  <path transform="translate(1511,674)" d="m0 0 1 2-6 11-2-1 2-5z" fill="#45AD99"/>
  <path transform="translate(602,224)" d="m0 0 2 1-2 6-3 1v-6z" fill="#43AB97"/>
  <path transform="translate(582,166)" d="m0 0 2 4-2 3z" fill="#4BB29D"/>
  <path transform="translate(1381,798)" d="m0 0" fill="#53B9A4"/>
  <path transform="translate(759,6)" d="m0 0" fill="#53B9A4"/>
</svg>